# xmcd
#
# Track frame offsets: 
#        150
#        24533
#        45734
#        69031
#        83416
#        106957
#        126041
#        142143
#        155664
#        185689
#        200640
#        220603
#        236618
#        256694
#        280851
#        296537
#
# Disc length: 4107 seconds
#
# Revision: 2
# Processed by: cddbd v1.5.2PL0 Copyright (c) Steve Scherf et al.
# Submitted via: ExactAudioCopyFreeDBPlugin 1.0
#
DISCID=e2100910
DTITLE=Various Artist - MY Jazz Freiheit - musik zum abfahren
DYEAR=2009
DGENRE=Jazz
TTITLE0=Ramsey Lewis - Do What You Wanna
TTITLE1=Soulive Feat. Corey Glover - Freedom
TTITLE2=Dave Pike Set - Mathar
TTITLE3=Shirley Horn - Hit The Road Jack
TTITLE4=James Last - Summertime
TTITLE5=Terry Callier - Ordinary Joe
TTITLE6=George Benson - Chattanooga Choo Choo
TTITLE7=Mark Murphy - Why And How
TTITLE8=Jimmy Smith - Funky Broadway
TTITLE9=James Brown - Sunny
TTITLE10=Incognito - On The Road (Pt. 1)
TTITLE11=De-Phazz - Heartfixer
TTITLE12=Chico Hamilton - For Mods Only
TTITLE13=Monty Alexander and Ernest Ranglin - Love And Happiness
TTITLE14=Quincy Jones - Take Five
TTITLE15=Al Jarreau - Route 66
EXTD=YEAR: 2009
EXTT0=
EXTT1=
EXTT2=
EXTT3=
EXTT4=
EXTT5=
EXTT6=
EXTT7=
EXTT8=
EXTT9=
EXTT10=
EXTT11=
EXTT12=
EXTT13=
EXTT14=
EXTT15=
PLAYORDER=
